# AST/ASF file generated using VICON BodyLanguage
# -----------------------------------------------
:version 1.10
:name VICON
:units
  mass 1.0
  length 0.45
  angle deg
:documentation
   .ast/.asf automatically generated from VICON data using
   VICON BodyBuilder and BodyLanguage model FoxedUp or BRILLIANT.MOD
:root
   order TX TY TZ RX RY RZ
   axis XYZ
   position 0 0 0  
   orientation 0 0 0 
:bonedata
  begin
     id 1 
     name lhipjoint
     direction 0.78388 -0.462562 0.414208 
     length 3.01181 
     axis 0 0 0  XYZ
  end
  begin
     id 2 
     name lfemur
     direction 0.34202 -0.939693 0  
     length 6.04673  
     axis 0 0 20  XYZ
    dof rx ry rz
    limits (-160.0 20.0)
           (-70.0 70.0)
           (-60.0 70.0)
  end
  begin
     id 3 
     name ltibia
     direction 0.34202 -0.939693 0   
     length 7.211   
     axis 0 0 20   XYZ
    dof rx
    limits (-10.0 170.0)
  end
  begin
     id 4 
     name lfoot
     direction 0.121887 -0.334882 0.934344   
     length 2.13567   
     axis -90 7.62852e-016 20   XYZ
    dof rx rz
    limits (-45.0 90.0)
           (-70.0 20.0)
  end
  begin
     id 5 
     name ltoes
     direction 1.53555e-011 -4.2179e-011 1   
     length 1.05957   
     axis -90 7.62852e-016 20   XYZ
    dof rx
    limits (-90.0 20.0)
  end
  begin
     id 6 
     name rhipjoint
     direction -0.769387 -0.475875 0.426129   
     length 2.92756  
     axis 0 0 0  XYZ 
  end
  begin
     id 7 
     name rfemur
     direction -0.34202 -0.939693 0   
     length 6.35468   
     axis 0 0 -20   XYZ
    dof rx ry rz
    limits (-160.0 20.0)
           (-70.0 70.0)
           (-70.0 60.0)
  end
  begin
     id 8 
     name rtibia
     direction -0.34202 -0.939693 0   
     length 7.37886   
     axis 0 0 -20   XYZ
    dof rx
    limits (-10.0 170.0)
 end
 begin
     id 9 
     name rfoot
     direction -0.101763 -0.279592 0.954711   
     length 2.21478  
     axis -90 -7.62852e-016 -20   XYZ
    dof rx rz
    limits (-45.0 90.0)
           (-20.0 70.0)
  end
  begin
     id 10 
     name rtoes
     direction -1.53494e-011 -4.21851e-011 1   
     length 1.10506   
     axis -90 -7.62852e-016 -20   XYZ
    dof rx
    limits (-90.0 20.0)
  end
  begin
     id 11 
     name lowerback
     direction 0.00747405 0.999267 0.0375481   
     length 2.13259   
     axis 0 0 0   XYZ
    dof rx ry rz
    limits (-20.0 45.0)
           (-30.0 30.0)
           (-30.0 30.0)
  end
  begin
     id 12 
     name upperback
     direction 0.00661626 0.996177 0.0871029   
     length 2.10528   
     axis 0 0 0   XYZ
    dof rx ry rz
    limits (-20.0 45.0)
           (-30.0 30.0)
           (-30.0 30.0)
  end
  begin
     id 13 
     name thorax
     direction 0.00320659 0.997679 0.0680167   
     length 2.11338   
     axis 0 0 0   XYZ
    dof rx ry rz
    limits (-20.0 45.0)
           (-30.0 30.0)
           (-30.0 30.0)
  end
  begin
     id 14 
     name lowerneck
     direction 0.0374841 0.973033 0.227602   
     length 1.42765   
     axis 0 0 0   XYZ
    dof rx ry rz
    limits (-20.0 45.0)
           (-30.0 30.0)
           (-30.0 30.0)
  end
  begin
     id 15 
     name upperneck
     direction 0.00481585 0.989155 -0.146795   
     length 1.47593   
     axis 0 0 0   XYZ
    dof rx ry rz
    limits (-20.0 45.0)
           (-30.0 30.0)
           (-30.0 30.0)
  end
  begin
     id 16
     name head
     direction -0.00292522 0.997206 -0.0746423  
     length 1.48116  
     axis 0 0 0   XYZ
    dof rx ry rz
    limits (-20.0 45.0)
           (-30.0 30.0)
           (-30.0 30.0)
  end
  begin
     id 17 
     name lclavicle
     direction 0.951444 0.305606 0.0368784  
     length 3.01855  
     axis 0 0 0   XYZ
    dof ry rz
    limits (-20.0 10.0)
           (0.0 20.0)
  end
  begin
     id 18 
     name lhumerus
     direction 1 -4.48977e-011 2.61664e-027   
     length 5.52731   
     axis 180 -30 -90   XYZ
    dof rx ry rz
    limits (-60.0 90.0)
           (-90.0 90.0)
           (-90.0 90.0)
  end
  begin
     id 19
     name lradius
     direction 1 -4.48944e-011 8.22157e-027   
     length 3.11059   
     axis 180 -30 -90   XYZ
    dof rx
    limits (-10.0 170.0)
  end
  begin
     id 20
     name lwrist
     direction 1 -4.48976e-011 1.5779e-026   
     length 1.5553   
     axis -1.15221e-014 90 90   XYZ
    dof ry
    limits (-180.0 0.0)
 end
  begin
     id 21 
     name lhand
     direction 1 -4.49025e-011 3.1558e-026   
     length 0.419626   
     axis -2.01367e-014 90 90   XYZ
    dof rx rz
    limits (-90.0 90.0)
           (-45.0 45.0)
  end
  begin
     id 22 
     name lfingers
     direction 1 -4.4904e-011 6.31161e-026   
     length 0.338313   
     axis -4.02734e-014 90 90   XYZ
    dof rx
    limits (0.0 90.0)
  end
  begin
     id 23
     name lthumb
     direction 0.707107 -6.35004e-011 0.707107   
     length 0.485752   
     axis -90 45 2.85299e-015   XYZ
    dof rx rz
    limits (-45.0 45.0)
           (-45.0 45.0)
  end
  begin
     id 24 
     name rclavicle
     direction -0.968876 0.223791 0.105816   
     length 3.04177  
     axis 0 0 0   XYZ 
    dof ry rz
    limits (-10.0 20.0)
           (-20.0 0.0)
  end
  begin
     id 25 
     name rhumerus
     direction -1 -4.48962e-011 -1.01384e-027  
     length 5.25396   
     axis 180 30 90   XYZ
    dof rx ry rz
    limits (-90.0 60.0)
           (-90.0 90.0)
           (-90.0 90.0)
  end
  begin
     id 26 
     name rradius
     direction -1 -4.48955e-011 8.88542e-027   
     length 3.10567   
     axis 180 30 90   XYZ
    dof rx
    limits (-10.0 170.0)
  end
  begin
     id 27 
     name rwrist
     direction -1 -4.48994e-011 1.5779e-026   
     length 1.55283   
     axis -1.15221e-014 -90 -90   XYZ
    dof ry
    limits (-180.0 0.0)
  end
  begin
     id 28
     name rhand
     direction -1 -4.48891e-011 3.1558e-026   
     length 0.498676   
     axis -2.01367e-014 -90 -90   XYZ
    dof rx rz
    limits (-90.0 90.0)
           (-45.0 45.0)
  end
  begin
     id 29
     name rfingers
     direction -1 -4.48972e-011 6.31161e-026   
     length 0.402045   
     axis -4.02734e-014 -90 -90   XYZ
    dof rx
    limits (0.0 90.0)
  end
  begin
     id 30
     name rthumb
     direction -0.707107 -6.34849e-011 0.707107   
     length 0.577259   
     axis -90 -45 -2.85299e-015   XYZ
    dof rx rz
    limits (-45.0 45.0)
           (-45.0 45.0)
  end
:hierarchy
  begin
    root lhipjoint rhipjoint lowerback
    lhipjoint lfemur
    lfemur ltibia
    ltibia lfoot
    lfoot ltoes
    rhipjoint rfemur
    rfemur rtibia
    rtibia rfoot
    rfoot rtoes
    lowerback upperback
    upperback thorax
    thorax lowerneck lclavicle rclavicle
    lowerneck upperneck
    upperneck head
    lclavicle lhumerus
    lhumerus lradius
    lradius lwrist
    lwrist lhand lthumb
    lhand lfingers
    rclavicle rhumerus
    rhumerus rradius
    rradius rwrist
    rwrist rhand rthumb
    rhand rfingers
  end

#!OML:ASF H:\Pregnant\Project 1\Capture day 1\Session 1\femalepreg.ASF
:FULLY-SPECIFIED
:DEGREES
162
root -7.86324 15.311 17.8633 -159.816 -4.50234 -182.87
lowerback -19.7975 2.67814 1.66151
upperback -2.23432 2.89942 -1.34068
thorax 8.81463 1.29875 -1.64706
lowerneck -15.2015 6.11319 2.95458
upperneck 34.123 8.57344 -8.7095
head 14.9806 1.86109 -2.92346
rclavicle 2.03754e-015 3.97569e-016
rhumerus -21.5671 8.24423 -89.1607
rradius 19.3536
rwrist 7.57684
rhand -17.7421 -17.7947
rfingers 7.12502
rthumb 8.51927 -47.6029
lclavicle 2.03754e-015 3.97569e-016
lhumerus -35.3124 -17.5504 90.7296
lradius 28.2588
lwrist 38.5185
lhand -14.8401 1.17929
lfingers 7.12502
lthumb 11.319 30.8538
rfemur -58.7969 17.9828 14.2336
rtibia 37.7779
rfoot 0.394592 -10.7575
rtoes -2.17673
lfemur 1.61123 -12.0298 -29.8792
ltibia -2.54444e-014
lfoot -6.28111 -10.0602
ltoes -1.81197
163
root -7.87816 15.3252 17.7428 -159.81 -4.57494 -182.486
lowerback -19.8273 2.75143 2.41287
upperback -2.32908 2.79794 -1.09896
thorax 8.74736 1.26598 -1.84051
lowerneck -15.1579 6.24105 3.04302
upperneck 34.2432 8.77383 -8.88263
head 15.0635 1.91537 -2.98758
rclavicle -4.42296e-015 -1.98785e-015
rhumerus -21.8321 6.46293 -88.3103
rradius 18.3937
rwrist 9.75214
rhand -17.2885 -18.2066
rfingers 7.12502
rthumb 8.95697 -47.9965
lclavicle -4.42296e-015 -1.98785e-015
lhumerus -35.6093 -17.9766 90.9857
lradius 27.9535
lwrist 37.4867
lhand -16.7489 0.590838
lfingers 7.12502
lthumb 9.47758 30.3577
rfemur -58.3587 17.9425 14.9071
rtibia 37.9801
rfoot -0.214295 -10.3915
rtoes -1.3591
lfemur 1.98591 -11.8521 -29.5297
ltibia -2.8625e-014
lfoot -5.27374 -10.2701
ltoes -2.69843
164
root -7.89335 15.34 17.624 -159.827 -4.65017 -182.128
lowerback -19.811 2.81336 3.14807
upperback -2.41241 2.6876 -0.866521
thorax 8.66505 1.2276 -2.03847
lowerneck -15.1221 6.37463 3.15565
upperneck 34.3501 8.98349 -9.07196
head 15.1467 1.97559 -3.06062
rclavicle 5.71506e-015 -1.11319e-014
rhumerus -22.1678 4.79295 -87.4516
rradius 17.6634
rwrist 11.7308
rhand -16.9026 -18.6636
rfingers 7.12502
rthumb 9.32936 -48.4371
lclavicle 5.71506e-015 -1.11319e-014
lhumerus -35.9268 -18.4409 91.2486
lradius 27.6818
lwrist 36.3532
lhand -18.7605 0.21055
lfingers 7.12502
lthumb 7.53634 30.0563
rfemur -57.8932 17.8786 15.5585
rtibia 38.19
rfoot -0.877972 -10.0604
rtoes -0.643389
lfemur 2.37006 -11.682 -29.2121
ltibia 4.13472e-014
lfoot -4.12341 -10.4531
ltoes -3.65469
165
root -7.90852 15.3557 17.5068 -159.853 -4.73903 -181.804
lowerback -19.7655 2.86102 3.85492
upperback -2.48775 2.56736 -0.645403
thorax 8.57242 1.18251 -2.23593
lowerneck -15.0918 6.5061 3.28582
upperneck 34.4422 9.1905 -9.27081
head 15.227 2.03712 -3.14056
rclavicle 6.13251e-014 1.63003e-014
rhumerus -22.5838 3.34178 -86.6221
rradius 17.1752
rwrist 13.366
rhand -16.6048 -19.1562
rfingers 7.12502
rthumb 9.61667 -48.9168
lclavicle 6.13251e-014 1.63003e-014
lhumerus -36.2576 -18.9411 91.5159
lradius 27.4568
lwrist 35.2228
lhand -20.7699 0.00703532
lfingers 7.12502
lthumb 5.59656 29.9131
rfemur -57.4099 17.777 16.1815
rtibia 38.3992
rfoot -1.57399 -9.74983
rtoes -0.000931571
lfemur 2.74432 -11.535 -28.9256
ltibia 1.27222e-014
lfoot -2.79678 -10.6093
ltoes -4.55817
166
root -7.92286 15.373 17.3919 -159.871 -4.90337 -181.533
lowerback -19.7051 2.86759 4.50719
upperback -2.56147 2.40657 -0.430343
thorax 8.46627 1.11474 -2.42016
lowerneck -15.0772 6.63629 3.42108
upperneck 34.5276 9.39714 -9.47009
head 15.3097 2.09978 -3.22122
rclavicle -8.94531e-016 -6.36111e-015
rhumerus -23.0762 2.21456 -85.8553
rradius 16.9224
rwrist 14.5323
rhand -16.4163 -19.6634
rfingers 7.12502
rthumb 9.79848 -49.4154
lclavicle -8.94531e-016 -6.36111e-015
lhumerus -36.5982 -19.4607 91.787
lradius 27.2888
lwrist 34.1866
lhand -22.7233 -0.0435327
lfingers 7.12502
lthumb 3.71029 29.9039
rfemur -56.9222 17.6229 16.7418
rtibia 38.6052
rfoot -2.29024 -9.5125
rtoes 0.600111
lfemur 3.0807 -11.4774 -28.6591
ltibia 3.49861e-014
lfoot -1.26091 -10.7428
ltoes -5.36489
167
root -7.93635 15.3919 17.2792 -159.858 -5.12139 -181.312
lowerback -19.6542 2.84375 5.1041
upperback -2.63666 2.21748 -0.220882
thorax 8.35691 1.02991 -2.58614
lowerneck -15.0925 6.76017 3.55183
upperneck 34.6155 9.59741 -9.66447
head 15.4008 2.15959 -3.29995
rclavicle 4.17448e-014 1.43125e-014
rhumerus -23.6263 1.49976 -85.186
rradius 16.8766
rwrist 15.1195
rhand -16.3443 -20.1377
rfingers 7.12502
rthumb 9.86795 -49.8865
lclavicle 4.17448e-014 1.43125e-014
lhumerus -36.928 -19.988 92.0588
lradius 27.1735
lwrist 33.3058
lhand -24.5762 0.0105931
lfingers 7.12502
lthumb 1.92087 29.9817
rfemur -56.4581 17.4225 17.2398
rtibia 38.804
rfoot -3.01656 -9.32642
rtoes 1.17285
lfemur 0.701349 -11.5524 -28.4244
ltibia 4.87852
lfoot -1.7566 -10.7053
ltoes -5.96373
168
root -7.94889 15.4123 17.1688 -159.809 -5.4029 -181.146
lowerback -19.6213 2.78313 5.63524
upperback -2.71823 1.99227 -0.0125047
thorax 8.2423 0.923613 -2.72494
lowerneck -15.1337 6.87244 3.65506
upperneck 34.7134 9.78515 -9.84512
head 15.5003 2.2109 -3.3707
rclavicle -9.24349e-015 -2.22639e-014
rhumerus -24.2274 1.187 -84.6172
rradius 17.0012
rwrist 15.1697
rhand -16.4497 -20.5128
rfingers 7.12502
rthumb 9.76628 -50.2664
lclavicle -9.24349e-015 -2.22639e-014
lhumerus -37.2583 -20.5136 92.3382
lradius 27.1297
lwrist 32.616
lhand -26.2957 0.109878
lfingers 7.12502
lthumb 0.26014 30.0895
rfemur -56.0247 17.1727 17.6672
rtibia 38.9968
rfoot -3.75289 -9.18989
rtoes 1.71315
lfemur -2.27967 -11.7177 -28.1791
ltibia 10.7072
lfoot -2.43128 -10.6971
ltoes -6.17329
169
root -7.96054 15.434 17.0603 -159.723 -5.74382 -181.036
lowerback -19.6106 2.68974 6.10046
upperback -2.8094 1.73584 0.191515
thorax 8.12186 0.798217 -2.83862
lowerneck -15.1829 6.96896 3.72231
upperneck 34.8183 9.95133 -10.0005
head 15.5998 2.25082 -3.42868
rclavicle 2.28602e-014 -3.18055e-015
rhumerus -24.8712 1.25007 -84.1547
rradius 17.2762
rwrist 14.7057
rhand -16.6471 -20.8215
rfingers 7.12502
rthumb 9.5758 -50.5839
lclavicle 2.28602e-014 -3.18055e-015
lhumerus -37.5916 -21.0324 92.6222
lradius 27.1582
lwrist 32.1092
lhand -27.8818 0.214599
lfingers 7.12502
lthumb -1.27173 30.1906
rfemur -55.6244 16.8762 18.0222
rtibia 39.1848
rfoot -4.49557 -9.10338
rtoes 2.21383
lfemur -4.34363 -11.6043 -27.9384
ltibia 14.6914
lfoot -1.98594 -11.1028
ltoes -5.96678
170
root -7.97167 15.4563 16.9527 -159.618 -6.13341 -180.979
lowerback -19.617 2.56901 6.50999
upperback -2.90369 1.45437 0.390167
thorax 8.00117 0.657944 -2.93233
lowerneck -15.2552 7.0513 3.75328
upperneck 34.9409 10.0984 -10.1286
head 15.708 2.27951 -3.47292
rclavicle -1.68967e-014 -2.38542e-014
rhumerus -25.5499 1.62896 -83.7906
rradius 17.6592
rwrist 13.8721
rhand -16.9622 -21.0191
rfingers 7.12502
rthumb 9.27184 -50.7953
lclavicle -1.68967e-014 -2.38542e-014
lhumerus -37.9271 -21.5382 92.9045
lradius 27.2667
lwrist 31.7548
lhand -29.2785 0.314392
lfingers 7.12502
lthumb -2.62069 30.278
rfemur -55.2382 16.528 18.3265
rtibia 39.3724
rfoot -5.24005 -9.05582
rtoes 2.6448
lfemur -6.15158 -11.4798 -27.7094
ltibia 18.0804
lfoot -0.990655 -11.5762
ltoes -5.36282
171
root -7.98233 15.4787 16.8451 -159.502 -6.5574 -180.97
lowerback -19.6421 2.42384 6.86362
upperback -2.99574 1.15167 0.585803
thorax 7.88772 0.505426 -3.00227
lowerneck -15.3199 7.11806 3.7203
upperneck 35.0581 10.226 -10.2127
head 15.8021 2.29778 -3.48997
rclavicle -6.36111e-015 5.96354e-014
rhumerus -26.2557 2.26385 -83.5082
rradius 18.1523
rwrist 12.7027
rhand -17.2485 -21.2117
rfingers 7.12502
rthumb 8.99552 -50.9999
lclavicle -6.36111e-015 5.96354e-014
lhumerus -38.2534 -22.0126 93.1762
lradius 27.4475
lwrist 31.5138
lhand -30.462 0.392213
lfingers 7.12502
lthumb -3.76363 30.3387
rfemur -54.8577 16.1315 18.5894
rtibia 39.5647
rfoot -5.9872 -9.03649
rtoes 2.99513
lfemur -7.83469 -11.3528 -27.4985
ltibia 21.1348
lfoot 0.412419 -12.0494
ltoes -4.38091
172
root -7.99244 15.5006 16.7379 -159.383 -7.00325 -180.999
lowerback -19.6754 2.26452 7.1763
upperback -3.08617 0.839679 0.773322
thorax 7.77734 0.347111 -3.05947
lowerneck -15.4037 7.17581 3.65609
upperneck 35.1901 10.34 -10.2646
head 15.9023 2.30904 -3.49059
rclavicle -8.15017e-015 -6.36111e-015
rhumerus -26.9765 3.03486 -83.2802
rradius 18.7229
rwrist 11.3199
rhand -17.4518 -21.3712
rfingers 7.12502
rthumb 8.79941 -51.1678
lclavicle -8.15017e-015 -6.36111e-015
lhumerus -38.5779 -22.4748 93.4322
lradius 27.7003
lwrist 31.3665
lhand -31.405 0.459229
lfingers 7.12502
lthumb -4.6742 30.3877
rfemur -54.4807 15.685 18.8326
rtibia 39.7637
rfoot -6.73394 -9.02152
rtoes 3.27626
lfemur -9.44601 -11.2324 -27.2996
ltibia 23.9611
lfoot 2.12176 -12.4691
ltoes -3.14657
173
root -8.0022 15.5213 16.6305 -159.279 -7.45234 -181.06
lowerback -19.7002 2.09832 7.45411
upperback -3.17334 0.529041 0.95108
thorax 7.66433 0.188624 -3.10644
lowerneck -15.4995 7.22895 3.57654
upperneck 35.3365 10.4444 -10.2914
head 16.0088 2.31637 -3.47986
rclavicle -3.8763e-015 -3.49861e-014
rhumerus -27.7123 3.87729 -83.0885
rradius 19.3475
rwrist 9.7842
rhand -17.5145 -21.5095
rfingers 7.12502
rthumb 8.73888 -51.3086
lclavicle -3.8763e-015 -3.49861e-014
lhumerus -38.9029 -22.9238 93.6703
lradius 28.0159
lwrist 31.3056
lhand -32.0749 0.489103
lfingers 7.12502
lthumb -5.32109 30.4023
rfemur -54.0886 15.1986 19.0666
rtibia 39.9675
rfoot -7.47963 -8.99492
rtoes 3.46472
lfemur -10.9886 -11.1304 -27.119
ltibia 26.6106
lfoot 4.02753 -12.7903
ltoes -1.79134
174
root -8.01089 15.5407 16.5244 -159.169 -7.90656 -181.149
lowerback -19.7185 1.92507 7.69135
upperback -3.26509 0.219945 1.11996
thorax 7.54176 0.0291196 -3.13893
lowerneck -15.6084 7.2792 3.48768
upperneck 35.4945 10.5416 -10.2962
head 16.1216 2.3215 -3.45955
rclavicle 1.71949e-014 -2.38542e-015
rhumerus -28.4497 4.74168 -82.9167
rradius 20.0044
rwrist 8.15164
rhand -17.4514 -21.5987
rfingers 7.12502
rthumb 8.79974 -51.3952
lclavicle 1.71949e-014 -2.38542e-015
lhumerus -39.225 -23.3643 93.8847
lradius 28.3901
lwrist 31.3456
lhand -32.453 0.461043
lfingers 7.12502
lthumb -5.6861 30.3648
rfemur -53.7079 14.6781 19.2844
rtibia 40.1686
rfoot -8.20833 -8.96058
rtoes 3.56453
lfemur -12.5065 -11.0599 -26.9458
ltibia 29.1203
lfoot 6.01437 -13.0226
ltoes -0.549365
175
root -8.01881 15.5588 16.4194 -159.073 -8.34602 -181.25
lowerback -19.7172 1.75713 7.90686
upperback -3.35597 -0.0730637 1.27758
thorax 7.4105 -0.123296 -3.16627
lowerneck -15.728 7.3232 3.39993
upperneck 35.6666 10.6245 -10.2843
head 16.2417 2.32211 -3.4353
rclavicle 7.65321e-015 3.81667e-014
rhumerus -29.186 5.62268 -82.7699
rradius 20.7017
rwrist 6.3733
rhand -17.2049 -21.7338
rfingers 7.12502
rthumb 9.03764 -51.5202
lclavicle 7.65321e-015 3.81667e-014
lhumerus -39.5353 -23.8081 94.0726
lradius 28.808
lwrist 31.5063
lhand -32.5464 0.395874
lfingers 7.12502
lthumb -5.77624 30.2971
rfemur -53.3136 14.1378 19.5038
rtibia 40.3528
rfoot -8.91777 -8.90482
rtoes 3.59512
lfemur -13.9856 -11.0189 -26.777
ltibia 31.516
lfoot 7.89938 -13.1969
ltoes 0.255378
